<?xml version="1.0" encoding="utf-8"?><svg viewBox="0 0 55 29" xmlns="http://www.w3.org/2000/svg" xmlns:xlink="http://www.w3.org/1999/xlink"><style>:root>svg{display:none}:root>svg:target{display:block}</style><svg fill="none" viewBox="0 0 31 29" id="arrow" xmlns="http://www.w3.org/2000/svg"><path fill-rule="evenodd" clip-rule="evenodd" d="M15.868.56l13.568.797a1.51 1.51 0 011.42 1.597l-.799 13.568a1.51 1.51 0 01-3.015-.177l.584-9.93L3.167 28.158a1.51 1.51 0 11-2.006-2.258L25.619 4.16l-9.928-.585A1.51 1.51 0 1115.868.56z" fill="currentColor"/></svg><svg fill="none" viewBox="0 0 33 16" id="burger" xmlns="http://www.w3.org/2000/svg"><path d="M32 15.5H1M32 8.5H1M32 1H1" stroke="currentColor" stroke-linecap="round"/></svg><svg fill="none" viewBox="0 0 20 20" id="close" xmlns="http://www.w3.org/2000/svg"><path d="M5 5l10 10m0-10L5 15" stroke="currentColor" stroke-width=".625" stroke-linecap="round"/></svg><svg fill="none" viewBox="0 0 25 25" id="icon-address" xmlns="http://www.w3.org/2000/svg"><path d="M21.875 11.719v9.375a.781.781 0 01-.781.781h-5.469a.781.781 0 01-.781-.781v-5.078a.39.39 0 00-.39-.391h-3.907a.39.39 0 00-.39.39v5.079a.781.781 0 01-.782.781H3.906a.781.781 0 01-.781-.781v-9.375c0-.415.165-.812.458-1.105l7.813-7.812a1.563 1.563 0 012.208 0l7.813 7.812c.293.293.458.69.458 1.105z" fill="currentColor"/></svg><svg fill="none" viewBox="0 0 25 25" id="icon-mail" xmlns="http://www.w3.org/2000/svg"><path fill-rule="evenodd" clip-rule="evenodd" d="M3.304 5.388c-1.22 1.22-1.22 3.184-1.22 7.112s0 5.893 1.22 7.113c1.221 1.22 3.185 1.22 7.113 1.22h4.167c3.928 0 5.892 0 7.112-1.22 1.22-1.221 1.22-3.185 1.22-7.113 0-3.928 0-5.893-1.22-7.112-1.22-1.22-3.184-1.221-7.113-1.221h-4.166c-3.928 0-5.893 0-7.113 1.22zM19.35 7.832a.782.782 0 01-.1 1.1l-2.287 1.907c-.924.77-1.672 1.393-2.334 1.818-.687.443-1.357.722-2.129.722s-1.441-.28-2.13-.722c-.66-.425-1.408-1.049-2.332-1.817L5.75 8.934a.781.781 0 111-1.2L9 9.606c.972.81 1.646 1.37 2.217 1.737.55.354.925.474 1.284.474.36 0 .734-.119 1.285-.474.57-.367 1.244-.927 2.216-1.737l2.25-1.875a.781.781 0 011.098.101z" fill="currentColor"/></svg><svg fill="none" viewBox="0 0 25 25" id="icon-phone" xmlns="http://www.w3.org/2000/svg"><g clip-path="url(#fclip0_214_2168)"><path fill-rule="evenodd" clip-rule="evenodd" d="M2.945.799a2.727 2.727 0 014.078.254l2.805 3.603c.514.661.695 1.522.492 2.335l-.855 3.422a1.062 1.062 0 00.279 1.004l3.839 3.84a1.062 1.062 0 001.006.277l3.42-.854a2.733 2.733 0 012.334.492l3.604 2.803a2.726 2.726 0 01.254 4.08l-1.615 1.615c-1.157 1.157-2.885 1.664-4.496 1.097a29.062 29.062 0 01-10.953-6.906A29.062 29.062 0 01.231 6.909C-.335 5.3.173 3.57 1.329 2.414L2.945.8z" fill="currentColor"/></g><defs><clipPath id="fclip0_214_2168"><path fill="#fff" d="M0 0h25v25H0z"/></clipPath></defs></svg><svg fill="none" viewBox="0 0 21 21" id="instagram" xmlns="http://www.w3.org/2000/svg"><path d="M10.343 6.508a3.594 3.594 0 10-.073 7.188 3.594 3.594 0 00.073-7.188zm-.064 6.25a2.657 2.657 0 11.055-5.313 2.657 2.657 0 01-.055 5.313zm3.86-10.586l-7.5-.077a4.223 4.223 0 00-4.262 4.176l-.077 7.5a4.224 4.224 0 004.175 4.26l7.5.078a4.224 4.224 0 004.261-4.175l.077-7.5a4.223 4.223 0 00-4.175-4.262zm3.16 11.752a3.281 3.281 0 01-3.315 3.247l-7.5-.076a3.282 3.282 0 01-3.247-3.315l.077-7.5A3.281 3.281 0 016.63 3.033l7.5.077a3.282 3.282 0 013.247 3.314l-.077 7.5zm-2.107-7.835a.782.782 0 11-1.564-.016.782.782 0 011.564.016z" fill="currentColor"/></svg><svg fill="none" viewBox="0 0 55 16" id="slider-arrow" xmlns="http://www.w3.org/2000/svg"><path fill-rule="evenodd" clip-rule="evenodd" d="M6.688 15.277L.296 8.941A1 1 0 01.29 7.527l6.336-6.392a1 1 0 011.42 1.409L3.41 7.22 53.995 7a1 1 0 11.009 2l-50.585.22 4.677 4.636a1 1 0 01-1.408 1.42z" fill="currentColor"/></svg><svg fill="none" viewBox="0 0 21 21" id="telegram" xmlns="http://www.w3.org/2000/svg"><path d="M10.06 12.942l2.67 3.099c.99 1.148 1.484 1.722 2.01 1.588.524-.133.712-.88 1.086-2.373l2.077-8.286c.578-2.3.867-3.45.257-4.026-.609-.575-1.679-.163-3.819.661L4.413 7.431c-1.712.66-2.568.99-2.628 1.57a.833.833 0 00-.002.179c.047.583.894.933 2.59 1.633.768.316 1.152.476 1.426.774l.089.104c.251.32.355.737.564 1.57l.392 1.56c.202.81.304 1.216.581 1.274.277.058.521-.275 1.01-.94l1.626-2.213zm0 0l-.26-.278c-.299-.318-.448-.476-.446-.671.002-.195.153-.351.46-.662l3.008-3.073" stroke="currentColor" stroke-width=".938" stroke-linecap="round" stroke-linejoin="round"/></svg><svg fill="none" viewBox="0 0 20 20" id="whatsapp" xmlns="http://www.w3.org/2000/svg"><path d="M14.584 11.456l-2.5-1.25a.468.468 0 00-.469.03l-1.225.816a3.321 3.321 0 01-1.442-1.443l.817-1.224a.469.469 0 00.03-.469l-1.25-2.5a.469.469 0 00-.42-.26 2.969 2.969 0 00-2.969 2.969 6.727 6.727 0 006.719 6.719 2.968 2.968 0 002.969-2.969.47.47 0 00-.26-.42zm-2.71 2.45a5.788 5.788 0 01-5.78-5.781 2.031 2.031 0 011.751-2.012l.99 1.978-.813 1.218a.469.469 0 00-.042.44 4.252 4.252 0 002.271 2.27.468.468 0 00.44-.042l1.217-.811 1.978.989a2.031 2.031 0 01-2.011 1.751zM10 2.031a7.969 7.969 0 00-7.004 11.773l-.908 2.724a1.094 1.094 0 001.384 1.384l2.724-.908A7.968 7.968 0 1010 2.03zm0 15a7.031 7.031 0 01-3.52-.944.476.476 0 00-.383-.039l-2.922.974a.156.156 0 01-.197-.198l.973-2.918a.468.468 0 00-.039-.383A7.031 7.031 0 1110 17.03z" fill="currentColor"/></svg><svg fill="none" viewBox="0 0 21 20" id="youtube" xmlns="http://www.w3.org/2000/svg"><path d="M13.168 9.61l-3.75-2.5a.469.469 0 00-.729.39v5a.469.469 0 00.73.39l3.75-2.5a.47.47 0 000-.78zm-3.541 2.014V8.376L12.063 10l-2.436 1.624zm8.937-6.155a1.72 1.72 0 00-1.037-1.172c-2.666-1.032-6.942-1.016-7.119-1.016-.177 0-4.453-.016-7.122 1.016a1.719 1.719 0 00-1.034 1.172c-.2.772-.438 2.187-.438 4.531s.239 3.759.438 4.531a1.718 1.718 0 001.037 1.172c2.666 1.032 6.941 1.016 7.12 1.016h.055c.54 0 4.53-.035 7.066-1.016a1.718 1.718 0 001.038-1.172c.199-.77.437-2.182.437-4.531 0-2.35-.237-3.759-.44-4.531zm-.907 8.828a.78.78 0 01-.47.536c-2.5.963-6.734.948-6.779.948-.045 0-4.274.016-6.777-.95a.781.781 0 01-.469-.537c-.188-.717-.41-2.046-.41-4.294 0-2.248.222-3.577.408-4.297a.781.781 0 01.469-.536c2.409-.928 6.43-.948 6.76-.948h.02c.041 0 4.273-.016 6.777.95a.78.78 0 01.468.536c.186.718.408 2.047.408 4.297 0 2.251-.22 3.575-.405 4.295z" fill="currentColor"/></svg></svg>