<svg width="35" height="35" viewBox="0 0 35 35" fill="none" xmlns="http://www.w3.org/2000/svg">
<g clip-path="url(#clip0_176_1130)">
<path d="M17.5 35C27.165 35 35 27.165 35 17.5C35 7.83502 27.165 0 17.5 0C7.83502 0 0 7.83502 0 17.5C0 27.165 7.83502 35 17.5 35Z" fill="#F4900C"/>
<path d="M17.4996 31.5972C25.2852 31.5972 31.5968 25.2857 31.5968 17.5C31.5968 9.71431 25.2852 3.40277 17.4996 3.40277C9.71388 3.40277 3.40234 9.71431 3.40234 17.5C3.40234 25.2857 9.71388 31.5972 17.4996 31.5972Z" fill="#FFD983"/>
<path d="M17.5002 30.1389C24.4805 30.1389 30.1391 24.4803 30.1391 17.5C30.1391 10.5197 24.4805 4.86111 17.5002 4.86111C10.52 4.86111 4.86133 10.5197 4.86133 17.5C4.86133 24.4803 10.52 30.1389 17.5002 30.1389Z" fill="#F5F8FA"/>
<path d="M17.4996 7.77777L18.988 13.9067L24.3741 10.6254L21.0929 16.0115L27.2218 17.5L21.0929 18.9885L24.3741 24.3746L18.988 21.0933L17.4996 27.2222L16.0111 21.0933L10.625 24.3746L13.9062 18.9885L7.77734 17.5L13.9062 16.0115L10.625 10.6254L16.0111 13.9067L17.4996 7.77777Z" fill="#CCD6DD"/>
<path d="M16.8613 20.1717L25.3945 25.4032L20.1649 16.869L16.8613 20.1717Z" fill="#583E26"/>
<path d="M18.1396 14.8429L9.60547 9.61139L14.836 18.1465L18.1396 14.8429Z" fill="#0FB800"/>
<path d="M17.4994 20.4779C19.1398 20.4779 20.4696 19.1481 20.4696 17.5078C20.4696 15.8674 19.1398 14.5376 17.4994 14.5376C15.8591 14.5376 14.5293 15.8674 14.5293 17.5078C14.5293 19.1481 15.8591 20.4779 17.4994 20.4779Z" fill="#8899A6"/>
<path d="M17.5007 19.11C18.3855 19.11 19.1029 18.3927 19.1029 17.5078C19.1029 16.6229 18.3855 15.9056 17.5007 15.9056C16.6158 15.9056 15.8984 16.6229 15.8984 17.5078C15.8984 18.3927 16.6158 19.11 17.5007 19.11Z" fill="#F5F8FA"/>
</g>
<defs>
<clipPath id="clip0_176_1130">
<rect width="35" height="35" fill="white"/>
</clipPath>
</defs>
</svg>
